<svg class="animated" id="freepik_stories-personalized-workouts" xmlns="http://www.w3.org/2000/svg" viewBox="0 0 750 500" version="1.1" xmlns:xlink="http://www.w3.org/1999/xlink" xmlns:svgjs="http://svgjs.com/svgjs"><style>svg#freepik_stories-personalized-workouts:not(.animated) .animable {opacity: 0;}svg#freepik_stories-personalized-workouts.animated #freepik--Character--inject-48 {animation: 2.3s 1 forwards ease-in slideLeft;animation-delay: 0s;}            @keyframes slideLeft {                0% {                    opacity: 0;                    transform: translateX(-30px);                }                100% {                    opacity: 1;                    transform: translateX(0);                }            }        </style><g id="freepik--background-simple--inject-48" class="animable" style="transform-origin: 367.689px 259.713px;"><path d="M452,49.16A220.8,220.8,0,0,0,422.35,45c-45-3.09-89.17,8.52-128.51,30.1s-76.17,48.49-110,78.13c-8.4,7.36-16.64,14.93-24.54,22.83C116,219.38-1.5,291.35,13.19,351.57S99.85,460.26,166.68,472.75,287.86,439.7,378.92,439.7,546.36,475,611.72,463.93s109.43-65.36,111.63-147.61c1.19-44.23-8.19-89.73-31.39-127.78-23.45-38.44-61.93-64.65-101.17-85-41.41-21.47-86.49-42.27-132-52.89Q455.39,49.86,452,49.16Z" style="fill: rgb(0, 255, 136); transform-origin: 367.689px 259.713px;" id="elnqgjdwazgx" class="animable"></path><g id="elycbny85y3t7"><path d="M452,49.16A220.8,220.8,0,0,0,422.35,45c-45-3.09-89.17,8.52-128.51,30.1s-76.17,48.49-110,78.13c-8.4,7.36-16.64,14.93-24.54,22.83C116,219.38-1.5,291.35,13.19,351.57S99.85,460.26,166.68,472.75,287.86,439.7,378.92,439.7,546.36,475,611.72,463.93s109.43-65.36,111.63-147.61c1.19-44.23-8.19-89.73-31.39-127.78-23.45-38.44-61.93-64.65-101.17-85-41.41-21.47-86.49-42.27-132-52.89Q455.39,49.86,452,49.16Z" style="fill: rgb(255, 255, 255); opacity: 0.7; transform-origin: 367.689px 259.713px;" class="animable"></path></g></g><g id="freepik--Floor--inject-48" class="animable" style="transform-origin: 383.06px 413.15px;"><line x1="728.27" y1="413.15" x2="37.85" y2="413.15" style="fill: rgb(38, 50, 56); stroke: rgb(0, 0, 0); stroke-miterlimit: 10; transform-origin: 383.06px 413.15px;" id="elr8max7bn9sp" class="animable"></line></g><g id="freepik--Plant--inject-48" class="animable" style="transform-origin: 89.5242px 286.971px;"><path d="M101.69,244.29h0a.12.12,0,0,0-.07-.17.13.13,0,0,0-.17.07,171.35,171.35,0,0,0-9,28.12,263.19,263.19,0,0,0-5,29.15l-.7,7.37c-.11,1.23-.24,2.45-.33,3.68l-.2,3.7c-.1,2.47-.26,4.93-.33,7.4L86,331l.08,3.7c.06,1.24.15,2.47.23,3.7.19,2.46.34,4.92.56,7.38.48,4.91,1.21,9.79,2,14.65a.14.14,0,0,0,.13.11.13.13,0,0,0,.13-.13h0c0-2.47-.12-4.92-.17-7.38s-.29-4.89-.25-7.35-.06-4.9-.08-7.35l-.07-3.67.06-3.67,0-7.34.2-7.33.07-3.67c0-1.22.14-2.44.21-3.66l.45-7.33a262,262,0,0,1,4.15-29.08A170.13,170.13,0,0,1,101.69,244.29Z" style="fill: rgb(171, 171, 171); transform-origin: 93.7968px 302.325px;" id="elcw7q8picvwg" class="animable"></path><path d="M102.74,282.65a.13.13,0,0,0-.08-.16.12.12,0,0,0-.16.08,169.63,169.63,0,0,0-8.31,37.79c-.65,6.42-1.37,12.84-1.46,19.3A158.6,158.6,0,0,0,93.42,359a.13.13,0,0,0,.11.12.15.15,0,0,0,.15-.12c.74-6.43,1.2-12.84,1.64-19.25s.52-12.83.94-19.24a170.6,170.6,0,0,1,2.28-19.08A175.85,175.85,0,0,1,102.74,282.65Z" style="fill: rgb(171, 171, 171); transform-origin: 97.7122px 320.801px;" id="elywd2ql31keg" class="animable"></path><path d="M124,296.15a.13.13,0,0,0-.18,0,64.86,64.86,0,0,0-14.22,12.4,56.73,56.73,0,0,0-5.56,7.73l-1.14,2.16-.9,2.24a21,21,0,0,0-.78,2.27c-.23.76-.49,1.53-.69,2.29A90.9,90.9,0,0,0,97.6,344a108.38,108.38,0,0,0,.7,18.89.15.15,0,0,0,.12.12.13.13,0,0,0,.14-.12l1.62-18.71c.65-6.18,1-12.41,2.37-18.45.17-.75.39-1.48.58-2.23a20.6,20.6,0,0,1,.65-2.2l.76-2.16,1-2.05a54.9,54.9,0,0,1,5.1-7.73,63.8,63.8,0,0,1,13.35-13h0A.13.13,0,0,0,124,296.15Z" style="fill: rgb(171, 171, 171); transform-origin: 110.756px 329.562px;" id="el2f2a0360wrk" class="animable"></path><path d="M113.72,320.18c-2.9,1.87-4.84,4.82-6.47,7.78a45.66,45.66,0,0,0-3.62,9.52c-.26.82-.46,1.64-.64,2.47l-.58,2.49a41,41,0,0,0-.63,5.05c0,1.7-.07,3.39,0,5.08a43.55,43.55,0,0,0,.67,5.06.13.13,0,0,0,.26,0,44.15,44.15,0,0,0,.89-5c.27-1.64.52-3.28.72-4.92s.46-3.26.58-4.9.35-3.28.71-4.88a43.71,43.71,0,0,1,2.77-9.44,20.84,20.84,0,0,1,5.43-8.11h0a.12.12,0,0,0,0-.17A.12.12,0,0,0,113.72,320.18Z" style="fill: rgb(171, 171, 171); transform-origin: 107.797px 338.97px;" id="elo3p7ldz1ons" class="animable"></path><path d="M83.89,338.92c-.7-8.31-2.07-16.53-3.37-24.74s-2.73-16.41-4.23-24.59-3.18-16.32-5-24.45a.13.13,0,0,0-.25.05c1.42,8.19,2.71,16.4,3.92,24.61s2.42,16.43,3.46,24.67,1.81,16.5,2.84,24.72l3,24.72a.13.13,0,0,0,.12.12.13.13,0,0,0,.13-.13c.1-2.08.1-4.16.15-6.25s-.08-4.17-.12-6.25C84.55,347.22,84.2,343.07,83.89,338.92Z" style="fill: rgb(171, 171, 171); transform-origin: 77.8556px 314.545px;" id="elsudw4q8sag" class="animable"></path><path d="M78.91,338.8c-.45-3.29-1-6.56-1.68-9.82l-1.16-4.85c-.39-1.61-.75-3.23-1.22-4.83a137.76,137.76,0,0,0-6.35-18.88l-1-2.29L66.4,295.9c-.71-1.51-1.56-2.94-2.36-4.39a36.91,36.91,0,0,0-6-7.95.13.13,0,1,0-.18.18v0a36.58,36.58,0,0,1,5.49,8.12c.72,1.48,1.48,2.93,2.1,4.46l1,2.26.86,2.3a134.87,134.87,0,0,1,5.53,18.89c.76,3.2,1.26,6.45,1.88,9.68l.78,4.86c.28,1.62.63,3.23.85,4.86.52,3.24,1.12,6.48,1.69,9.73s1.09,6.51,1.78,9.76a.14.14,0,0,0,.13.11.13.13,0,0,0,.13-.13c0-3.32-.06-6.64-.23-10S79.25,342.1,78.91,338.8Z" style="fill: rgb(171, 171, 171); transform-origin: 68.9406px 321.136px;" id="eldarxono4ygg" class="animable"></path><path d="M72,339.22c-1.54-4.35-3.32-8.62-5.26-12.8a113.88,113.88,0,0,0-6.62-12.13.14.14,0,0,0-.17,0,.14.14,0,0,0-.05.18,115.8,115.8,0,0,1,5.65,12.5c1.68,4.25,3.2,8.56,4.47,12.94s2.23,8.83,3.4,13.22,2.21,8.83,3.56,13.27a.14.14,0,0,0,.12.1.13.13,0,0,0,.14-.13A66,66,0,0,0,76,352.52,86.76,86.76,0,0,0,72,339.22Z" style="fill: rgb(171, 171, 171); transform-origin: 68.5671px 340.381px;" id="eldvvlvh2w61t" class="animable"></path><path d="M71.75,353.74a29.87,29.87,0,0,0-3.66-7.67,31.38,31.38,0,0,0-5.32-6.61,23.76,23.76,0,0,0-3.38-2.55,13.87,13.87,0,0,0-3.84-1.74.13.13,0,0,0-.15.07.12.12,0,0,0,.07.17h0a19.14,19.14,0,0,1,6.37,4.95,30.29,30.29,0,0,1,4.44,6.71c1.26,2.39,1.91,5,3,7.48.49,1.26,1,2.53,1.53,3.79a31.9,31.9,0,0,0,1.67,3.84h0a.12.12,0,0,0,.11.07.13.13,0,0,0,.14-.12,30.15,30.15,0,0,0-.16-4.25C72.38,356.5,72.08,355.11,71.75,353.74Z" style="fill: rgb(171, 171, 171); transform-origin: 64.0663px 348.708px;" id="elrtwf3noq1ud" class="animable"></path><path d="M72.26,277s-13.6-3.14-16.74-17.79,7-8.38-2.1-31.41-7-28.26-3.83-34.89,4.88-4.53,7.67,4.19S70.17,219.46,74,244.93,72.26,277,72.26,277Z" style="fill: rgb(0, 255, 136); transform-origin: 61.1125px 233.005px;" id="elc93v60hfpzb" class="animable"></path><path d="M99.13,252.26s-9.07-3.14-9.42-20.24,6.63-13.61,7.67-34.89,2.45-36.29,6.28-36.63,14,10.46,17.45,34.19-4.54,39.42-11.51,46.4S99.13,252.26,99.13,252.26Z" style="fill: rgb(0, 255, 136); transform-origin: 105.818px 206.376px;" id="elkr155pgb2j" class="animable"></path><path d="M67.38,297.61s-2.09-12.56-6.28-18.49S47.84,268,41.91,256.44s-12.56-17.09-12.21-.69,7.67,24.77,16.74,30.35S67.38,297.61,67.38,297.61Z" style="fill: rgb(0, 255, 136); transform-origin: 48.5334px 271.546px;" id="elzve4b7haypi" class="animable"></path><path d="M63.54,319.25S55.17,303.2,43,291.33s-22-17.79-18.5-11.86,7.68,5.58,13.61,16,4.19,18.14,12.56,24.08S63.54,319.25,63.54,319.25Z" style="fill: rgb(0, 255, 136); transform-origin: 43.6618px 299.628px;" id="el44r2xa2vuu5" class="animable"></path><path d="M62.49,339.83c-.34-1.05-.69-8.72-12.56-15s-23-3.84-21.63-.7S37,332.5,44.35,335.64,62.49,339.83,62.49,339.83Z" style="fill: rgb(0, 255, 136); transform-origin: 45.3377px 330.374px;" id="elx2lmcb71sh" class="animable"></path><path d="M98.43,298.31S93.2,291.68,96,277.73s9.07-10.47,16.05-17.8,5.58-8.37,12.56-16.05,13.26-11.86,16.05-8.72-1.4,12.91-5.58,18.49-10.82,8.38-14,15.35-1.74,18.15-9.77,23.38S98.43,298.31,98.43,298.31Z" style="fill: rgb(0, 255, 136); transform-origin: 118.369px 266.209px;" id="eluv81xy6qss" class="animable"></path><path d="M115.88,302.15s12.56-14.3,21.63-24.77,12.56-18.49,12.91-11.52,3.14,12.56-4.19,21.64S115.88,302.15,115.88,302.15Z" style="fill: rgb(0, 255, 136); transform-origin: 133.555px 282.696px;" id="el80rwpv6tmf8" class="animable"></path><path d="M109.25,325.18s-.35-5.58,19.54-18.49,28.26-15.36,26.16-10.12S144.14,307,134.72,316.45,109.25,325.18,109.25,325.18Z" style="fill: rgb(0, 255, 136); transform-origin: 132.257px 309.593px;" id="elz4icshjhdh" class="animable"></path><path d="M73.09,275.54s-4.66-25-9.55-42.82-8-28.61-8-28.61" style="fill: none; stroke: rgb(171, 171, 171); stroke-linecap: round; stroke-linejoin: round; transform-origin: 64.315px 239.825px;" id="el47k540pyaht" class="animable"></path><path d="M98.33,252.52S106.8,225.39,109.6,209s-.35-28.61-1.75-35.93" style="fill: none; stroke: rgb(171, 171, 171); stroke-linecap: round; stroke-linejoin: round; transform-origin: 104.526px 212.795px;" id="elvzgvc8q4es" class="animable"></path><path d="M66.28,297.09a131.88,131.88,0,0,0-12.86-18.32c-7.67-9.07-13.6-13.95-17.09-22.68" style="fill: none; stroke: rgb(171, 171, 171); stroke-linecap: round; stroke-linejoin: round; transform-origin: 51.305px 276.59px;" id="elmzgyt7yc3x8" class="animable"></path><path d="M98.43,298.31s2.79-16.75,9.42-25.47,19.89-22.33,25.12-31" style="fill: none; stroke: rgb(171, 171, 171); stroke-linecap: round; stroke-linejoin: round; transform-origin: 115.7px 270.075px;" id="elj49dltjglj" class="animable"></path><path d="M61.67,339.45s-11.74-7.64-20.11-11.83" style="fill: none; stroke: rgb(171, 171, 171); stroke-linecap: round; stroke-linejoin: round; transform-origin: 51.615px 333.535px;" id="elp68xt27awxl" class="animable"></path><path d="M95.82,413.45H80.46a6.73,6.73,0,0,1-6.22-4.14c-5-12-18.42-46.73-10.35-56.57,7.69-9.37,40.81-9.37,48.5,0,8.07,9.84-5.33,44.55-10.35,56.57A6.74,6.74,0,0,1,95.82,413.45Z" style="fill: rgb(171, 171, 171); transform-origin: 88.1412px 379.581px;" id="el9f07fcr696b" class="animable"></path></g><g id="freepik--Picture--inject-48" class="animable" style="transform-origin: 594.275px 132.275px;"><g id="ell5u62x6omg"><g style="opacity: 0.3; transform-origin: 594.275px 132.275px;" class="animable"><rect x="550.81" y="78.39" width="86.93" height="107.77" style="fill: none; stroke: rgb(0, 0, 0); stroke-miterlimit: 10; transform-origin: 594.275px 132.275px;" id="elpbcnto21n97" class="animable"></rect><rect x="572.28" y="105" width="44" height="54.55" style="stroke: rgb(0, 0, 0); stroke-miterlimit: 10; transform-origin: 594.28px 132.275px;" id="elnvo5bbcx27" class="animable"></rect></g></g></g><g id="freepik--Furniture--inject-48" class="animable" style="transform-origin: 478.15px 282.54px;"><g id="el1qw6y4qne7"><g style="opacity: 0.3; transform-origin: 478.15px 340.325px;" class="animable"><g id="ely5c60yfk4da"><rect x="409.25" y="267.5" width="137.8" height="5.19" style="fill: none; stroke: rgb(0, 0, 0); stroke-linecap: round; stroke-linejoin: round; transform-origin: 478.15px 270.095px; transform: rotate(180deg);" class="animable"></rect></g><g id="el5pjf7kgjnlv"><rect x="415.64" y="272.84" width="125.02" height="140.31" style="fill: none; stroke: rgb(0, 0, 0); stroke-linecap: round; stroke-linejoin: round; transform-origin: 478.15px 342.995px; transform: rotate(180deg);" class="animable"></rect></g><g id="elomf1e6618b"><rect x="420.14" y="279.37" width="116.17" height="30.44" style="fill: none; stroke: rgb(0, 0, 0); stroke-linecap: round; stroke-linejoin: round; transform-origin: 478.225px 294.59px; transform: rotate(180deg);" class="animable"></rect></g><g id="elmz2v7065dx"><rect x="472.62" y="291.79" width="11.62" height="5.61" style="fill: rgb(38, 50, 56); stroke: rgb(0, 0, 0); stroke-linecap: round; stroke-linejoin: round; transform-origin: 478.43px 294.595px; transform: rotate(180deg);" class="animable"></rect></g><g id="elnzjnllmth3"><rect x="420.14" y="317.83" width="116.17" height="30.44" style="fill: none; stroke: rgb(0, 0, 0); stroke-linecap: round; stroke-linejoin: round; transform-origin: 478.225px 333.05px; transform: rotate(180deg);" class="animable"></rect></g><g id="el6iiatgq7ol4"><rect x="472.62" y="330.24" width="11.62" height="5.61" style="fill: rgb(38, 50, 56); stroke: rgb(0, 0, 0); stroke-linecap: round; stroke-linejoin: round; transform-origin: 478.43px 333.045px; transform: rotate(180deg);" class="animable"></rect></g><g id="elp77dqbgzbqg"><rect x="420.14" y="356.46" width="116.17" height="30.44" style="fill: none; stroke: rgb(0, 0, 0); stroke-linecap: round; stroke-linejoin: round; transform-origin: 478.225px 371.68px; transform: rotate(180deg);" class="animable"></rect></g><g id="eld5eic57q3vt"><rect x="472.62" y="368.88" width="11.62" height="5.61" style="fill: rgb(38, 50, 56); stroke: rgb(0, 0, 0); stroke-linecap: round; stroke-linejoin: round; transform-origin: 478.43px 371.685px; transform: rotate(180deg);" class="animable"></rect></g></g></g><g id="elf8hbtzlzpam"><g style="opacity: 0.3; transform-origin: 476.995px 209.5px;" class="animable"><path d="M481.64,221.16v-1.42h-10v1.42a26.77,26.77,0,0,1-8.11,18.91,15.3,15.3,0,0,0-4.64,10.87c0,8.91,7.95,16.13,17.76,16.13s17.75-7.22,17.75-16.13a15.29,15.29,0,0,0-4.63-10.87A26.73,26.73,0,0,1,481.64,221.16Z" style="stroke: rgb(0, 0, 0); stroke-miterlimit: 10; transform-origin: 476.645px 243.405px;" id="elxuessy4udwp" class="animable"></path><rect x="439.78" y="151.93" width="74.43" height="67.79" style="fill: none; stroke: rgb(0, 0, 0); stroke-miterlimit: 10; transform-origin: 476.995px 185.825px;" id="elshjla9u9ffk" class="animable"></rect></g></g></g><g id="freepik--Mat--inject-48" class="animable" style="transform-origin: 473.385px 445.985px;"><polygon points="222.31 472.21 724.46 472.21 682.62 419.76 264.16 419.76 222.31 472.21" style="fill: rgb(171, 171, 171); transform-origin: 473.385px 445.985px;" id="el8ttmz3uypv" class="animable"></polygon></g><g id="freepik--Device--inject-48" class="animable" style="transform-origin: 226.35px 251.63px;"><path d="M307.73,89.92v311.5a15.48,15.48,0,0,1-15.48,15.48H157.65a15.48,15.48,0,0,1-15.48-15.48V89.92a15.48,15.48,0,0,1,15.47-15.48h57.78l0,.18c1.44,5.18,4.76,8.55,8.44,8.55H226c3.68,0,7-3.37,8.43-8.55l.06-.18h57.76A15.48,15.48,0,0,1,307.73,89.92Z" style="fill: rgb(255, 255, 255); stroke: rgb(38, 50, 56); stroke-linecap: round; stroke-linejoin: round; transform-origin: 224.95px 245.67px;" id="elzq4b5yvtni" class="animable"></path><path d="M318.25,164.32V133.21h-2.81V93.38a24.55,24.55,0,0,0-24.55-24.55H159a24.55,24.55,0,0,0-24.55,24.55v316.5A24.55,24.55,0,0,0,159,434.43H290.89a24.55,24.55,0,0,0,24.55-24.55v-219h2.81V172.45h-2.81v-8.13Zm-10.52,228a24.56,24.56,0,0,1-24.56,24.56H166.73a24.56,24.56,0,0,1-24.56-24.56V99a24.56,24.56,0,0,1,24.56-24.55h48.69l0,.18c1.44,5.18,4.76,8.55,8.44,8.55H226c3.68,0,7-3.37,8.43-8.55l.06-.18h48.68A24.56,24.56,0,0,1,307.73,99Z" style="fill: rgb(0, 255, 136); stroke: rgb(38, 50, 56); stroke-linecap: round; stroke-linejoin: round; transform-origin: 226.35px 251.63px;" id="ellmg6cn0exh" class="animable"></path><path d="M288.92,72.21H161A23.68,23.68,0,0,0,137.3,95.89V407.37A23.68,23.68,0,0,0,161,431.05H288.92a23.68,23.68,0,0,0,23.68-23.68V95.89A23.68,23.68,0,0,0,288.92,72.21Zm18.81,321a23.68,23.68,0,0,1-23.68,23.68H165.85a23.68,23.68,0,0,1-23.68-23.68V98.12a23.68,23.68,0,0,1,23.67-23.68h49.58l0,.18c1.44,5.18,4.76,8.55,8.44,8.55H226c3.68,0,7-3.37,8.43-8.55l.06-.18h49.56a23.69,23.69,0,0,1,23.68,23.68Z" style="fill: rgb(38, 50, 56); stroke: rgb(38, 50, 56); stroke-linecap: round; stroke-linejoin: round; transform-origin: 224.95px 251.63px;" id="elz1cggwgmk0b" class="animable"></path><path d="M226.75,75.62a2.31,2.31,0,1,0-2.31,2.3A2.3,2.3,0,0,0,226.75,75.62Z" style="fill: rgb(255, 255, 255); transform-origin: 224.44px 75.61px;" id="el5cuyd3yuly2" class="animable"></path><path d="M156.89,84.45c0,2.33-2.62,3.17-2.63,5v.12h2.54v.79h-3.39v-.67c0-2.49,2.62-3,2.62-5.16,0-.79-.27-1.21-.91-1.21s-.91.45-.91,1.14v.68h-.8v-.63c0-1.18.54-2,1.73-2S156.89,83.27,156.89,84.45Z" style="fill: rgb(38, 50, 56); transform-origin: 155.15px 86.435px;" id="elsp6c1cqilw8" class="animable"></path><path d="M161.12,84.44v.2a1.54,1.54,0,0,1-.94,1.59,1.54,1.54,0,0,1,.94,1.6v.6c0,1.18-.55,1.95-1.75,1.95s-1.73-.77-1.73-1.95V87.9h.81v.58c0,.7.28,1.12.9,1.12s.91-.41.91-1.19v-.6c0-.76-.32-1.13-1-1.15h-.47v-.77h.51a.93.93,0,0,0,.93-1.06v-.36c0-.79-.28-1.2-.91-1.2s-.9.43-.9,1.12v.4h-.81v-.35c0-1.18.55-2,1.73-2S161.12,83.26,161.12,84.44Z" style="fill: rgb(38, 50, 56); transform-origin: 159.37px 86.41px;" id="elvww7s1zaem8" class="animable"></path><path d="M162.79,85V86.1H162V85Zm0,4.21v1.08H162V89.23Z" style="fill: rgb(38, 50, 56); transform-origin: 162.395px 87.645px;" id="elqr18lvvs5t" class="animable"></path><path d="M164.54,85.72a1.24,1.24,0,0,1,1.15-.64c1,0,1.43.73,1.43,1.83v1.52c0,1.18-.56,1.95-1.74,1.95s-1.74-.77-1.74-1.95v-.52h.81v.57c0,.7.29,1.12.91,1.12s.9-.42.9-1.12V87c0-.7-.29-1.12-.9-1.12a.84.84,0,0,0-.88.83v.18h-.8l.21-4.3h3.05v.77h-2.28Z" style="fill: rgb(38, 50, 56); transform-origin: 165.38px 86.485px;" id="elcgrsl3vga0m" class="animable"></path><path d="M171.42,84.43v.14h-.8v-.2c0-.69-.29-1.1-.92-1.1s-.94.42-.94,1.25v1.73a1.25,1.25,0,0,1,1.25-.83c1,0,1.44.72,1.44,1.84v1.17c0,1.18-.59,1.95-1.77,1.95s-1.78-.77-1.78-1.95v-4c0-1.22.55-2,1.78-2S171.42,83.24,171.42,84.43Zm-2.66,2.89v1.16c0,.7.29,1.12.92,1.12s.91-.42.91-1.12V87.32c0-.69-.29-1.11-.91-1.11S168.76,86.63,168.76,87.32Z" style="fill: rgb(38, 50, 56); transform-origin: 169.675px 86.405px;" id="el865rydncl79" class="animable"></path><rect x="253.69" y="84.77" width="2.18" height="5.46" style="fill: rgb(38, 50, 56); transform-origin: 254.78px 87.5px;" id="elheagopk48kd" class="animable"></rect><rect x="256.6" y="83.67" width="2.18" height="6.55" style="fill: rgb(38, 50, 56); transform-origin: 257.69px 86.945px;" id="el915b2tpq3hu" class="animable"></rect><rect x="259.52" y="82.9" width="2.18" height="7.33" style="fill: rgb(38, 50, 56); transform-origin: 260.61px 86.565px;" id="elit6l07xf6j" class="animable"></rect><rect x="262.43" y="81.55" width="2.18" height="8.68" style="fill: rgb(38, 50, 56); transform-origin: 263.52px 85.89px;" id="elsnwmdldedq" class="animable"></rect><path d="M291.64,90.08h-13.1v-8h13.1Zm-12.37-.73h11.65V82.8H279.27Z" style="fill: rgb(38, 50, 56); transform-origin: 285.09px 86.08px;" id="ellwboa6n0hws" class="animable"></path><rect x="280.36" y="83.59" width="6.92" height="4.97" style="fill: rgb(38, 50, 56); transform-origin: 283.82px 86.075px;" id="elsnx7wujujm" class="animable"></rect><rect x="291.19" y="85.13" width="1.65" height="1.89" style="fill: rgb(38, 50, 56); transform-origin: 292.015px 86.075px;" id="eluv6by21l999" class="animable"></rect><path d="M273.73,88.34a.59.59,0,0,1-.25-.07c-2.66-1.59-4.43-.12-4.5,0a.5.5,0,0,1-.69,0,.48.48,0,0,1,0-.69c.09-.08,2.34-2,5.64,0a.48.48,0,0,1,.17.67A.49.49,0,0,1,273.73,88.34Z" style="fill: rgb(38, 50, 56); transform-origin: 271.158px 87.5406px;" id="elmqrmyctxjtg" class="animable"></path><path d="M274.72,86.69a.45.45,0,0,1-.25-.07c-3.86-2.29-6.45-.07-6.48-.05a.48.48,0,0,1-.69,0,.5.5,0,0,1,.05-.69s3.16-2.7,7.62,0a.49.49,0,0,1,.17.67A.47.47,0,0,1,274.72,86.69Z" style="fill: rgb(38, 50, 56); transform-origin: 271.197px 85.6981px;" id="elif56j36wnb" class="animable"></path><path d="M275.62,84.79a.52.52,0,0,1-.25-.07c-4.89-2.91-8.14-.17-8.27-.06a.49.49,0,1,1-.65-.73s3.9-3.34,9.42-.05a.49.49,0,0,1,.17.67A.52.52,0,0,1,275.62,84.79Z" style="fill: rgb(38, 50, 56); transform-origin: 271.183px 83.6196px;" id="elu5s4pj0nas" class="animable"></path><path d="M272.26,89.16A1.23,1.23,0,1,1,271,87.93,1.23,1.23,0,0,1,272.26,89.16Z" style="fill: rgb(38, 50, 56); transform-origin: 271.03px 89.1596px;" id="el6tkp8ptf32p" class="animable"></path><path d="M224.66,276.64A68.37,68.37,0,1,1,293,208.28,68.44,68.44,0,0,1,224.66,276.64Zm0-123.38a55,55,0,1,0,55,55A55.08,55.08,0,0,0,224.66,153.26Z" style="fill: rgb(232, 232, 232); transform-origin: 224.63px 208.27px;" id="elyxye0gjt9k" class="animable"></path><path d="M227.3,147.16h0A6.83,6.83,0,0,0,233,154a54.53,54.53,0,1,1-53.94,23.92,6.87,6.87,0,0,0-1.41-9.12h0a6.92,6.92,0,0,0-10.16,1.57,68.36,68.36,0,1,0,67.74-30A6.91,6.91,0,0,0,227.3,147.16Z" style="fill: rgb(0, 255, 136); transform-origin: 224.625px 208.278px;" id="elxtut0nthff" class="animable"></path><path d="M282.3,194.22a7.25,7.25,0,0,0-3.32-1.77,11.35,11.35,0,0,1-1.35-.52,6.18,6.18,0,0,1-1.13-.9c-1-.95-2.32-2.1-3.92-1.9h-.19a2.33,2.33,0,0,0-.47.14l-.15.06-.32.18-.14.09c-.12.09-.24.18-.35.28a.2.2,0,0,1-.07.06,3.62,3.62,0,0,0-.36.42l-.06.06-.69.91h.13a9.05,9.05,0,0,0-.64,1.65c-3.17.18-10.11.61-13.25.88l-.28,0a21.48,21.48,0,0,0-7.8,2.79l-1,.51c-.3.15-.57.27-.8.37a5.17,5.17,0,0,1-1.5.27c-.92,0-2.06,0-3.31,0l-1.19,0-.74,0a35.81,35.81,0,0,0-3.85.08c-.55,0-1.07.05-1.59,0a23.89,23.89,0,0,1-3.48-.39l-.92-.15a14.69,14.69,0,0,0-5.43-.31,38.26,38.26,0,0,0-4.78,1.5l-1.09.39-.44.15-.48.16-.39.13-.56.15-.3.08a4.52,4.52,0,0,1-.73.13h0a10.59,10.59,0,0,1-4.74-1.25l-.11,0h0l-.33-.14c-2.2-.95-9.63-4.07-12.84-4l-1,.05-.17,0-.81.08h-.1a17.55,17.55,0,0,0-2,.34,4,4,0,0,0-.52-2.3,1.85,1.85,0,0,1-.1-.54,5.59,5.59,0,0,0-1.39-3.23c-1.67-2-2.92-2.9-5.9-2.83a5.58,5.58,0,0,0-4.55,2.28l0,0a3.73,3.73,0,0,1-1,1.15,2.37,2.37,0,0,1-.74.32c-.58.18-1.45.46-1.35,1.57a3.53,3.53,0,0,0,1.11,1.79,3.27,3.27,0,0,0,.06,1.94c.1.23.23.44.35.66.34.59.54,1,.37,1.27a4.17,4.17,0,0,1-.4.6,1.37,1.37,0,0,0-.41,1.05.79.79,0,0,0,.41.52l.88.47a23.19,23.19,0,0,1,1.42,1.88,1.89,1.89,0,0,0,2.36,1,3.79,3.79,0,0,0,1.95-1c.9.23,3.4.86,4.08.91.27,0,.73.09,1.21.18a11.58,11.58,0,0,0,.48,3.87c.45,1.39.69,6.94.82,9.92.06,1.56.08,2,.11,2.13s0,.17,0,.3a9.62,9.62,0,0,0,0,4.1c.45,2.06.91,7.32,1,8.69l-.19.1a7.7,7.7,0,0,1-1.07,0,3.62,3.62,0,0,0-1.53.16,5.14,5.14,0,0,0-1.28,1c-.72.18-1.38.37-1.77.5-.64.21-.7.55-.65.8s.13.59,1.54.59c.34,0,.75,0,1.25-.08,1.12-.11,2.46-.17,3.87-.17h.35a2.64,2.64,0,0,0,2.14-.6c.54,0,1.67-.1,1.92-1,.16-.56.44-3.1.82-7.55.38-4.28.69-7.16.9-8.31a47,47,0,0,0,0-6.61,4.92,4.92,0,0,0,2.11.85,11.37,11.37,0,0,0,2.88-.24l.38-.09a7.31,7.31,0,0,0,1,.28l.08,0,.3.07.18,0h0a28.43,28.43,0,0,0,3.58.43c3.72.25,5,.51,5.11.51s.85.1,2,.17h.13c.79,0,1.75.08,2.78.08H221c-.12.64-.25,1.44-.36,2.36V215c-.05.39-.09.79-.13,1.21a.28.28,0,0,0,0,.09c0,.36-.06.72-.08,1.1,0,.11,0,.22,0,.33,0,.42,0,.83,0,1.26v.16c0,.39,0,.77,0,1.16,0,.13,0,.25,0,.37,0,.45,0,.9.08,1.36.46,5,1.85,10.58,3.9,12.23l.21.18a2.22,2.22,0,0,0,.41.2l0,0h0a2.11,2.11,0,0,0,.44.09,6.66,6.66,0,0,0,1,.06h.11l.55,0h.32l.56,0,.44,0h0l1.15-.11h0c2.26-.23,5-.63,7.51-1l.3-.05.76-.13.85-.14h.09c2.6-.45,4.68-.83,5.26-.94a23.6,23.6,0,0,1,5.81-.11,1.55,1.55,0,0,0,1,.81,15.28,15.28,0,0,0,2.65.41c1,.11,2.15.24,2.94.41a4.33,4.33,0,0,1,1.76.88,2.5,2.5,0,0,0,1,.55l0,.06.29,0a1.07,1.07,0,0,0,.81-.41c.3-.42.17-.95-.09-2l-.05-.2h0c-.41-1.63-1.78-3-4.32-5-.91-.74-1.87-1.59-2.71-2.34-2.16-1.94-3-2.61-3.58-2.39h0c-.24.09-.5.32-1,1.15l0,0-.06.09-.27.46h0c-.35.61-.74,1.39-1.17,2.32l-1.74-.22-3.05-.38a47.3,47.3,0,0,0-12.43.41c0-.22.08-.5.15-.83.12-.65.31-1.49.5-2.37l.24-1c.25-1.1.53-2.32.8-3.6v0l.35-1.73.09-.44c0-.07,0-.15,0-.23.05-.24.1-.49.14-.72l0-.19c0-.25.09-.51.13-.75l0-.11c0-.26.09-.52.14-.77V214c0-.26.09-.52.13-.77v0c.16-1,.28-1.82.38-2.52l1.06-.17c.74-.13,1.41-.26,2-.42,2.27-.61,8.83-2.67,13.2-4.12l1.54-.52a41.55,41.55,0,0,0,5-2.19,38.85,38.85,0,0,1,9.13-3.5l.62-.14.88-.19,1.13-.25c2.8-.61,4.29-.91,4.92-1a1.41,1.41,0,0,0,1,.61,3.34,3.34,0,0,0,1.61-.3,3.71,3.71,0,0,1,1.1-.28,7.08,7.08,0,0,1,3,.59c.2.1.41.24.64.38a5.6,5.6,0,0,0,2.29,1l0,.24.79-.34a1.52,1.52,0,0,0,.33-.2,1.47,1.47,0,0,0,.51-1A7.91,7.91,0,0,0,282.3,194.22Z" style="fill: rgb(38, 50, 56); transform-origin: 230.831px 210.668px;" id="el505yl4w3dfq" class="animable"></path><path d="M206.44,323.62v-3l8.07-12.58c.6-.94,1.16-1.81,1.67-2.63a13.2,13.2,0,0,0,1.25-2.56,9,9,0,0,0,.49-3.12,7.1,7.1,0,0,0-.7-3.45,2.61,2.61,0,0,0-2.47-1.25,3.13,3.13,0,0,0-2.32.82A4.48,4.48,0,0,0,211.3,298a12.4,12.4,0,0,0-.32,2.86V302h-4.19v-1.1a14.12,14.12,0,0,1,.77-4.92,6.33,6.33,0,0,1,2.46-3.19,8,8,0,0,1,4.53-1.14q3.84,0,5.72,2.17a8.88,8.88,0,0,1,1.88,6,11.63,11.63,0,0,1-.49,3.57,13.9,13.9,0,0,1-1.27,2.86c-.52.89-1.1,1.8-1.72,2.74l-7.29,11.13h10v3.53Z" style="fill: rgb(38, 50, 56); transform-origin: 214.303px 307.645px;" id="elh7f25j5pl6k" class="animable"></path><path d="M225.17,323.62v-3l8.08-12.58c.6-.94,1.15-1.81,1.66-2.63a13.23,13.23,0,0,0,1.26-2.56,9.29,9.29,0,0,0,.49-3.12,7.09,7.09,0,0,0-.71-3.45,2.6,2.6,0,0,0-2.47-1.25,3.12,3.12,0,0,0-2.31.82A4.41,4.41,0,0,0,230,298a12.41,12.41,0,0,0-.31,2.86V302h-4.2v-1.1a14.12,14.12,0,0,1,.77-4.92,6.34,6.34,0,0,1,2.47-3.19,8,8,0,0,1,4.52-1.14c2.57,0,4.47.72,5.73,2.17a8.93,8.93,0,0,1,1.88,6,11.94,11.94,0,0,1-.49,3.57,13.93,13.93,0,0,1-1.28,2.86c-.52.89-1.09,1.8-1.72,2.74l-7.29,11.13h10v3.53Z" style="fill: rgb(38, 50, 56); transform-origin: 233.022px 307.645px;" id="elmej4vv9966t" class="animable"></path><path d="M214.24,120.87v-10h2.17a3.73,3.73,0,0,1,1.75.34,1.91,1.91,0,0,1,.93,1,4.64,4.64,0,0,1,.27,1.69v3.67a5.19,5.19,0,0,1-.27,1.79,2.19,2.19,0,0,1-.9,1.1,3.23,3.23,0,0,1-1.67.38Zm1.39-1h.79a1.55,1.55,0,0,0,1.08-.3,1.26,1.26,0,0,0,.39-.86,10.73,10.73,0,0,0,.07-1.37V114.1a6.11,6.11,0,0,0-.1-1.25,1,1,0,0,0-.43-.7,1.9,1.9,0,0,0-1.05-.23h-.75Z" style="fill: rgb(38, 50, 56); transform-origin: 216.801px 115.868px;" id="eljikvguudd1r" class="animable"></path><path d="M220.19,120.87l2.12-10h1.34l2.13,10h-1.32l-.45-2.52h-2l-.48,2.52Zm2-3.51h1.66l-.83-4.5Z" style="fill: rgb(38, 50, 56); transform-origin: 222.985px 115.87px;" id="el3gi1spe4kpr" class="animable"></path><path d="M228.05,120.87v-3.53l-2.16-6.45h1.3l1.52,4.82,1.51-4.82h1.3l-2.14,6.45v3.53Z" style="fill: rgb(38, 50, 56); transform-origin: 228.705px 115.88px;" id="elys2xhcgm18o" class="animable"></path><path d="M236.6,120.87v-8.26a1.28,1.28,0,0,1-.28.08l-.6.12-.59.11-.27,0v-1l.49-.13.56-.21a3.06,3.06,0,0,0,.56-.31,2.29,2.29,0,0,0,.45-.43h1v10Z" style="fill: rgb(38, 50, 56); transform-origin: 236.39px 115.855px;" id="eluchdk1ixwtk" class="animable"></path><circle cx="161.57" cy="354.66" r="8.89" style="fill: rgb(38, 50, 56); transform-origin: 161.57px 354.66px;" id="elk8b4xdwc0y" class="animable"></circle><line x1="179.36" y1="356.88" x2="288.29" y2="356.88" style="fill: none; stroke: rgb(38, 50, 56); stroke-miterlimit: 10; transform-origin: 233.825px 356.88px;" id="el5r57oebsvxt" class="animable"></line><circle cx="161.57" cy="379.11" r="8.89" style="fill: rgb(38, 50, 56); transform-origin: 161.57px 379.11px;" id="elba3d6w1fvy7" class="animable"></circle><line x1="179.36" y1="381.34" x2="288.29" y2="381.34" style="fill: none; stroke: rgb(38, 50, 56); stroke-miterlimit: 10; transform-origin: 233.825px 381.34px;" id="els96m6mjztv" class="animable"></line></g><g id="freepik--Character--inject-48" class="animable animator-active" style="transform-origin: 502.035px 356.869px;"><path d="M394.27,354.73s1.37,25,.34,30.46-2.39,20.54-3.08,28.41-2,22.93-2.73,25.32-5.57,2.06-5.57,2.06-7.78-1-9.49-1-12,1-12,1a19.18,19.18,0,0,1,4.45-3.77c2.05-1,9.43.7,10.53-1.53a45.54,45.54,0,0,0,3.16-13.87c.34-5.47,2.73-73.58,2.73-73.58Z" style="fill: rgb(38, 50, 56); stroke: rgb(38, 50, 56); stroke-miterlimit: 10; transform-origin: 378.367px 394.613px;" id="elq5ng2d30yq" class="animable"></path><path d="M327.93,300.38s-2.42,6.4-1,9.34,3.8,5.53,2.42,8.13-3.63,4.15-2.08,5,3.29,1.73,3.29,1.73a85.31,85.31,0,0,1,5.19,6.92c1.21,2.07,2.25,3.28,6.22,2.59a11.59,11.59,0,0,0,6.4-3.63s11.93,3.11,14.53,3.29,9.51,1.72,9.51,1.72,9.17,8,13,14.19,13.14,14.18,18.33,14.52A40.16,40.16,0,0,0,414.75,363s4.5,2.08,17.47,2.94,17.44,1.75,17.44,1.75,21.27,2.42,34.24-.86,28.19-4.33,36.49-6.57,35.28-10.73,50-15.74,27.24-14.73,48.09-19.4,27.07-5.73,27.07-5.73,2.18-2.17-.31-7.93-5.45-6.23-7-6.23-37.82,2.12-51.31,3.33-25.68,9.74-32.08,12.34-21.11-.25-36.5,1-27.85-5-38.57-2.76-23.52,8.64-30.09,9.16-13.29-2.79-18.48-5-32-13.67-42.89-13.32S372,312.31,372,312.31s-1.73-.17-2.59-.34-.35-3.29-11.59-10.21S330.53,295.54,327.93,300.38Z" style="fill: rgb(255, 255, 255); stroke: rgb(38, 50, 56); stroke-miterlimit: 10; transform-origin: 486.458px 332.603px;" id="elz2jt7q7fa7c" class="animable"></path><path d="M333.47,288.27a15,15,0,0,1-4,4.5c-2.59,1.9-6.74,1.21-6.4,4.84s9.17,11.07,15.74,12.63,4-.87,4-.87,2.59-4.67,5.88-2.25,2.07,6.57,2.07,6.57,5.71.87,8.65,3.64,5.36.69,10.38-3.12S372,304.87,371,302.8s.34-6.23-4.85-12.45-9-9.17-18.67-9A17.28,17.28,0,0,0,333.47,288.27Z" style="fill: rgb(38, 50, 56); stroke: rgb(38, 50, 56); stroke-miterlimit: 10; transform-origin: 347.87px 299.972px;" id="el9d93ruq3ayd" class="animable"></path><path d="M370.9,291.3l10.94,5.46c-1.62-4.85-6.21-5.61-8.9-5.61,2.76-.51,7.09-2.63,4.61-11.18-3.52-12.11-24.61-14.46-28.91-9.77s-1.16,11.16-1.16,11.16a115.89,115.89,0,0,0,6.63,9.94c4.3,5.85,16.89,11.5,21.09,9.37S370.9,291.3,370.9,291.3Z" style="fill: rgb(38, 50, 56); stroke: rgb(38, 50, 56); stroke-miterlimit: 10; transform-origin: 364.107px 284.539px;" id="elzfc58w08sn" class="animable"></path><path d="M350.76,313.69a8.94,8.94,0,0,1-1,2.6,3.08,3.08,0,0,1-1.9,1.73s1.21,3.8.69,6.57" style="fill: none; stroke: rgb(38, 50, 56); stroke-miterlimit: 10; transform-origin: 349.31px 319.14px;" id="el6s5mzxcq7l" class="animable"></path><line x1="330.53" y1="313.35" x2="331.57" y2="315.94" style="fill: none; stroke: rgb(38, 50, 56); stroke-linecap: round; stroke-linejoin: round; transform-origin: 331.05px 314.645px;" id="elbju6d28zgjl" class="animable"></line><path d="M328.63,311.45a1.79,1.79,0,0,1,2.94-.52" style="fill: none; stroke: rgb(38, 50, 56); stroke-miterlimit: 10; transform-origin: 330.1px 310.911px;" id="elm9klvm9u7uo" class="animable"></path><path d="M332.6,325.8s1.39.35,2.25-2.42" style="fill: none; stroke: rgb(38, 50, 56); stroke-miterlimit: 10; transform-origin: 333.725px 324.597px;" id="elql3yx9fgm2b" class="animable"></path><path d="M381.3,310.4c-3.16,1.12-10.48,4.89-11.63,15.86a20.56,20.56,0,0,0,1.13,8.88l1.58.34s9.17,8,13,14.19,13.14,14.18,18.33,14.52A40.16,40.16,0,0,0,414.75,363a25.17,25.17,0,0,0,4.9,1.37l.61-.33s10-26.84,10.92-40.81c-5.19-2.25-32-13.67-42.89-13.32C385.63,310,383.3,310.16,381.3,310.4Z" style="fill: rgb(0, 255, 136); stroke: rgb(38, 50, 56); stroke-miterlimit: 10; transform-origin: 400.381px 337.136px;" id="ely3w3t3imkv" class="animable"></path><path d="M382.75,344a19.53,19.53,0,0,0,15.54-.25c8.64-3.7,13.58-16.53,10.61-22.45s-15-11.6-23.93-10.12S371.39,321.57,371.64,328,377.81,341.56,382.75,344Z" style="fill: rgb(255, 255, 255); stroke: rgb(38, 50, 56); stroke-miterlimit: 10; transform-origin: 390.698px 328.216px;" id="elzwk7if9vop" class="animable"></path><path d="M385,312.94s-7.65-1.73-12.59,8.14a38.18,38.18,0,0,0-2.22,27.64c2.22,6.91,2.9,40.48,3.22,41.19s-2.06,6.65-.24,14.9,3.6,30.87,3.6,30.87a31.46,31.46,0,0,1-6.4,2.87c-2.9.79-11.62,2.91-14.74,4s1.16,1.62,6.56,1.07S373,443,375.49,443s5.53.68,7.74-2,.95-7.79.88-8.52,3.37-35.54,4.4-40.1,1.81-14.08,1.81-14.08l.57-41.16" style="fill: rgb(255, 255, 255); stroke: rgb(38, 50, 56); stroke-miterlimit: 10; transform-origin: 372.732px 378.332px;" id="eliu49xjocrhh" class="animable"></path><path d="M471.41,365.05s-4.69,18.51-3,37.27,7.4,39,14.31,41.46,55.78-6.42,64.91-8.15,21.47-.25,21.47-.25-3.71-11.1-5.43-12.58-2.72-1.23-22-3.7-41.7,1.23-43.43,1.72,2.72-15.54,6.42-33.56,4.93-30.84,4.93-30.84Z" style="fill: rgb(255, 255, 255); stroke: rgb(38, 50, 56); stroke-miterlimit: 10; transform-origin: 518.571px 400.314px;" id="el5dak0islusi" class="animable"></path><path d="M559.51,420.82s5.92-12.83,7.9-13.57,11.1,8.89,19.74,15.8,12.83,11.1,14.07,16,1.73,6.41-.74,6.66-4.44-3.7-10.12-4.94-16-1.72-18.76-2.71-2.46-2.72-2.46-2.72l-5.43-12.58Z" style="fill: rgb(38, 50, 56); stroke: rgb(38, 50, 56); stroke-miterlimit: 10; transform-origin: 580.876px 426.466px;" id="elyvlmf2tuqke" class="animable"></path><path d="M601.22,439.09c-1.24-4.94-5.43-9.13-14.07-16s-17.77-16.54-19.74-15.8c-.58.22-1.51,1.49-2.52,3.17a16,16,0,0,1,7,4.24c5.92,5.67,7.9,10.36,10.86,11.84s9.38,2.72,13.08,8.14,3.45,9.38,4.69,11.11C603,445.5,602.45,444,601.22,439.09Z" style="fill: rgb(255, 255, 255); stroke: rgb(38, 50, 56); stroke-miterlimit: 10; transform-origin: 583.576px 426.52px;" id="el4y7hoto7jmo" class="animable"></path><path d="M545.7,436c-12.68,2.35-56.42,10.1-62.94,7.77-6.9-2.46-12.58-22.7-14.31-41.46-1.27-13.77.92-27.41,2.18-33.68.45-2.27.78-3.58.78-3.58l38.26-8.64s-1.18,12.21-4.67,29.52c-.09.44-.19.88-.27,1.33-3.7,18-8.14,34.06-6.42,33.56s24.19-4.19,43.43-1.72l2.39.3A47.41,47.41,0,0,1,545.7,436Z" style="fill: rgb(0, 255, 136); stroke: rgb(38, 50, 56); stroke-miterlimit: 10; transform-origin: 506.964px 400.306px;" id="elvehhgsmwq7b" class="animable"></path><path d="M509.67,356.41s-1.18,12.21-4.67,29.52l-1.2-3.13c-6.81-11.35-26.59-13.7-33.17-14.17.45-2.27.78-3.58.78-3.58Z" style="fill: rgb(38, 50, 56); stroke: rgb(38, 50, 56); stroke-miterlimit: 10; transform-origin: 490.15px 371.17px;" id="elv56up98tte" class="animable"></path><path d="M645.53,319.37a2.83,2.83,0,0,0,2.61,2.31c2.44.45,6-2,8.88-2s7.77.44,11.1,2.22,8.67,6.22,11.78,3.77S679,313,675.68,309s-11.33-5.33-15.33-7.32-9.55-10.67-16.66-9.33-9.55,12.88-9.55,12.88,6-.67,9.11,3.55S645.53,319.37,645.53,319.37Z" style="fill: rgb(38, 50, 56); stroke: rgb(38, 50, 56); stroke-miterlimit: 10; transform-origin: 657.58px 309.3px;" id="el6w309qx336t" class="animable"></path><path d="M679.16,326.11a3.47,3.47,0,0,0,.74-.43C683,323.24,679,313,675.68,309s-11.33-5.33-15.33-7.32-9.55-10.67-16.66-9.33a9.17,9.17,0,0,0-5.49,3.75c1.34-.09,7.45-.42,10.6,1.36,3.56,2,8.89,6.44,13.55,7.32s12.88,4.45,15.1,11.78C678.93,321.44,679.32,324.25,679.16,326.11Z" style="fill: rgb(255, 255, 255); stroke: rgb(38, 50, 56); stroke-miterlimit: 10; transform-origin: 659.608px 309.16px;" id="el6gk538n1suu" class="animable"></path><path d="M631.31,322.12c-5.25,1.42-5.47,1.34-12.84,3-20.86,4.68-33.4,14.38-48.1,19.4s-41.68,13.49-50,15.74-23.53,3.29-36.5,6.56a70.69,70.69,0,0,1-15.42,1.71c-4.08.07-8-.05-11.2-.23-8.33-18.28-8.23-32.76-7.34-40.07A48.23,48.23,0,0,0,460,325.42c6.13-2.16,13.3-5,19.73-6.35,10.72-2.25,23.17,4,38.56,2.77s30.11,1.64,36.51-1,18.6-11.13,32.09-12.34c8.63-.78,26.46-1.71,38.73-2.54C629.47,310.31,630.71,317.68,631.31,322.12Z" style="fill: rgb(0, 255, 136); stroke: rgb(38, 50, 56); stroke-miterlimit: 10; transform-origin: 540.41px 337.255px;" id="elyian2x9husi" class="animable"></path><path d="M468.48,368.51c-4.08.07-8-.05-11.2-.23-8.33-18.28-8.23-32.76-7.34-40.07A48.23,48.23,0,0,0,460,325.42C461.28,335.46,464.28,356.67,468.48,368.51Z" style="fill: rgb(38, 50, 56); stroke: rgb(38, 50, 56); stroke-miterlimit: 10; transform-origin: 459.01px 346.975px;" id="elowrm41rdv1k" class="animable"></path></g><defs>     <filter id="active" height="200%">         <feMorphology in="SourceAlpha" result="DILATED" operator="dilate" radius="2"></feMorphology>                <feFlood flood-color="#32DFEC" flood-opacity="1" result="PINK"></feFlood>        <feComposite in="PINK" in2="DILATED" operator="in" result="OUTLINE"></feComposite>        <feMerge>            <feMergeNode in="OUTLINE"></feMergeNode>            <feMergeNode in="SourceGraphic"></feMergeNode>        </feMerge>    </filter>    <filter id="hover" height="200%">        <feMorphology in="SourceAlpha" result="DILATED" operator="dilate" radius="2"></feMorphology>                <feFlood flood-color="#ff0000" flood-opacity="0.5" result="PINK"></feFlood>        <feComposite in="PINK" in2="DILATED" operator="in" result="OUTLINE"></feComposite>        <feMerge>            <feMergeNode in="OUTLINE"></feMergeNode>            <feMergeNode in="SourceGraphic"></feMergeNode>        </feMerge>            <feColorMatrix type="matrix" values="0   0   0   0   0                0   1   0   0   0                0   0   0   0   0                0   0   0   1   0 "></feColorMatrix>    </filter></defs></svg>